<svg width="231" height="208" viewBox="0 0 231 208" fill="none" xmlns="http://www.w3.org/2000/svg">
<path d="M123 39C123 36.2386 125.239 34 128 34H181C193.15 34 203 43.8497 203 56V104C203 107.314 200.314 110 197 110H134C127.925 110 123 105.075 123 99V39Z" fill="#9F6F4F"/>
<path d="M73 5C73 2.23858 75.2386 0 78 0H135C147.15 0 157 9.84974 157 22V69C157 72.3137 154.314 75 151 75H84C77.9249 75 73 70.0751 73 64V5Z" fill="#D48D5E"/>
<path d="M28 46C28 43.2386 30.2386 41 33 41H89C101.15 41 111 50.8497 111 63V110C111 113.314 108.314 116 105 116H39C32.9249 116 28 111.075 28 105V46Z" fill="#EBEBEB"/>
<path d="M147 89C147 86.2386 149.239 84 152 84H209C221.15 84 231 93.8497 231 106V153C231 156.314 228.314 159 225 159H158C151.925 159 147 154.075 147 148V89Z" fill="#1E1E1E"/>
<path d="M103 138C103 135.239 105.239 133 108 133H163C175.15 133 185 142.85 185 155V202C185 205.314 182.314 208 179 208H114C107.925 208 103 203.075 103 197V138Z" fill="#3F3F3F"/>
<path d="M0 89C0 86.2386 2.23858 84 5 84H61C73.1503 84 83 93.8497 83 106V153C83 156.314 80.3137 159 77 159H11C4.92487 159 0 154.075 0 148V89Z" fill="#FFA600"/>
<path d="M57 118C57 115.239 59.2386 113 62 113H117C129.15 113 139 122.85 139 135V182C139 185.314 136.314 188 133 188H68C61.9249 188 57 183.075 57 177V118Z" fill="#004ECB"/>
<path d="M83 72C83 69.2386 85.2386 67 88 67H143C155.15 67 165 76.8497 165 89V138C165 141.314 162.314 144 159 144H94C87.9249 144 83 139.075 83 133V72Z" fill="#3CD079"/>
</svg>
